<mxfile host="app.diagrams.net" modified="2022-11-25T16:18:22.309Z" agent="5.0 (Windows NT 10.0; Win64; x64) AppleWebKit/537.36 (KHTML, like Gecko) Chrome/107.0.0.0 Safari/537.36" etag="D-4RkFMIqK8ozNsfct3v" version="20.6.0" type="github" pages="5">
  <diagram id="U8fzolZC7nZdCNsqpMJk" name="Тезисы">
    <mxGraphModel dx="1550" dy="867" grid="1" gridSize="10" guides="1" tooltips="1" connect="1" arrows="1" fold="1" page="1" pageScale="1" pageWidth="827" pageHeight="1169" math="0" shadow="0">
      <root>
        <mxCell id="0" />
        <mxCell id="1" parent="0" />
        <mxCell id="AP_dU7DCzNYFyPdQlKkF-1" value="ТипСообщения с подключенной обработкой, содержащей xsd" style="rounded=0;whiteSpace=wrap;html=1;" parent="1" vertex="1">
          <mxGeometry x="40" y="40" width="120" height="60" as="geometry" />
        </mxCell>
        <mxCell id="AP_dU7DCzNYFyPdQlKkF-2" value="Настройка" style="rounded=0;whiteSpace=wrap;html=1;" parent="1" vertex="1">
          <mxGeometry x="240" y="40" width="120" height="60" as="geometry" />
        </mxCell>
        <mxCell id="AP_dU7DCzNYFyPdQlKkF-3" value="Превращаем поля xsd в настройку" style="rounded=0;whiteSpace=wrap;html=1;" parent="1" vertex="1">
          <mxGeometry x="414" y="40" width="160" height="80" as="geometry" />
        </mxCell>
        <mxCell id="AP_dU7DCzNYFyPdQlKkF-4" value="" style="rounded=0;whiteSpace=wrap;html=1;" parent="1" vertex="1">
          <mxGeometry x="640" y="40" width="120" height="60" as="geometry" />
        </mxCell>
        <mxCell id="AP_dU7DCzNYFyPdQlKkF-5" value="Обработка загрузки из Excel" style="rounded=0;whiteSpace=wrap;html=1;" parent="1" vertex="1">
          <mxGeometry x="160" y="200" width="480" height="80" as="geometry" />
        </mxCell>
        <mxCell id="AP_dU7DCzNYFyPdQlKkF-6" value="Для разных реквизитов xsd должна быть возможность указать одинаковую колонку" style="rounded=0;whiteSpace=wrap;html=1;" parent="1" vertex="1">
          <mxGeometry x="40" y="440" width="160" height="80" as="geometry" />
        </mxCell>
        <mxCell id="AP_dU7DCzNYFyPdQlKkF-7" value="Для полей xsd указываем номер колонки в качестве источника данных" style="rounded=0;whiteSpace=wrap;html=1;" parent="1" vertex="1">
          <mxGeometry x="40" y="560" width="160" height="80" as="geometry" />
        </mxCell>
        <mxCell id="AP_dU7DCzNYFyPdQlKkF-8" value="Возможность отладки: прочитать текст полученного пакета загрузки?" style="rounded=0;whiteSpace=wrap;html=1;fillColor=#f8cecc;strokeColor=#b85450;" parent="1" vertex="1">
          <mxGeometry x="520" y="320" width="160" height="80" as="geometry" />
        </mxCell>
        <mxCell id="AP_dU7DCzNYFyPdQlKkF-9" value="Какая-то возможность установки номера колонки не руками?" style="rounded=0;whiteSpace=wrap;html=1;fillColor=#f8cecc;strokeColor=#b85450;" parent="1" vertex="1">
          <mxGeometry x="520" y="440" width="160" height="80" as="geometry" />
        </mxCell>
        <mxCell id="AP_dU7DCzNYFyPdQlKkF-10" value="Для разных реквизитов xsd должна быть возможность указать одинаковую колонку" style="rounded=0;whiteSpace=wrap;html=1;" parent="1" vertex="1">
          <mxGeometry x="40" y="320" width="160" height="80" as="geometry" />
        </mxCell>
        <mxCell id="AP_dU7DCzNYFyPdQlKkF-11" value="Базовая встроенная настройка формата по обязательным полям" style="rounded=0;whiteSpace=wrap;html=1;" parent="1" vertex="1">
          <mxGeometry x="280" y="320" width="160" height="80" as="geometry" />
        </mxCell>
        <mxCell id="AP_dU7DCzNYFyPdQlKkF-12" value="В поля назначаем номер колонки или конкретное значение реквизита (не ссылка из базы)" style="rounded=0;whiteSpace=wrap;html=1;" parent="1" vertex="1">
          <mxGeometry x="40" y="680" width="160" height="80" as="geometry" />
        </mxCell>
      </root>
    </mxGraphModel>
  </diagram>
  <diagram id="5XHhKs9LB3xMoOQARmgq" name="Схема процесса работы с обработкой">
    <mxGraphModel dx="1550" dy="867" grid="1" gridSize="10" guides="1" tooltips="1" connect="1" arrows="1" fold="1" page="1" pageScale="1" pageWidth="827" pageHeight="1169" math="0" shadow="0">
      <root>
        <mxCell id="0" />
        <mxCell id="1" parent="0" />
        <mxCell id="87eF1S2lNxK1gvHGaXlv-1" value="" style="swimlane;html=1;childLayout=stackLayout;resizeParent=1;resizeParentMax=0;startSize=20;horizontal=0;horizontalStack=1;whiteSpace=wrap;" parent="1" vertex="1">
          <mxGeometry x="160" y="80" width="1140" height="2030" as="geometry" />
        </mxCell>
        <mxCell id="87eF1S2lNxK1gvHGaXlv-2" value="Пользователь" style="swimlane;html=1;startSize=20;" parent="87eF1S2lNxK1gvHGaXlv-1" vertex="1">
          <mxGeometry x="20" width="540" height="2030" as="geometry" />
        </mxCell>
        <mxCell id="87eF1S2lNxK1gvHGaXlv-5" value="Открывает обработку" style="points=[[0.145,0.145,0],[0.5,0,0],[0.855,0.145,0],[1,0.5,0],[0.855,0.855,0],[0.5,1,0],[0.145,0.855,0],[0,0.5,0]];shape=mxgraph.bpmn.event;html=1;verticalLabelPosition=bottom;labelBackgroundColor=#ffffff;verticalAlign=top;align=center;perimeter=ellipsePerimeter;outlineConnect=0;aspect=fixed;outline=standard;symbol=general;" parent="87eF1S2lNxK1gvHGaXlv-2" vertex="1">
          <mxGeometry x="85" y="40" width="50" height="50" as="geometry" />
        </mxCell>
        <mxCell id="87eF1S2lNxK1gvHGaXlv-8" value="Создает новую &lt;br&gt;настройку" style="points=[[0.145,0.145,0],[0.5,0,0],[0.855,0.145,0],[1,0.5,0],[0.855,0.855,0],[0.5,1,0],[0.145,0.855,0],[0,0.5,0]];shape=mxgraph.bpmn.event;html=1;verticalLabelPosition=bottom;labelBackgroundColor=#ffffff;verticalAlign=top;align=center;perimeter=ellipsePerimeter;outlineConnect=0;aspect=fixed;outline=standard;symbol=general;" parent="87eF1S2lNxK1gvHGaXlv-2" vertex="1">
          <mxGeometry x="410" y="280" width="50" height="50" as="geometry" />
        </mxCell>
        <mxCell id="87eF1S2lNxK1gvHGaXlv-14" style="edgeStyle=orthogonalEdgeStyle;rounded=0;orthogonalLoop=1;jettySize=auto;html=1;entryX=0.5;entryY=0;entryDx=0;entryDy=0;entryPerimeter=0;" parent="87eF1S2lNxK1gvHGaXlv-2" source="87eF1S2lNxK1gvHGaXlv-9" target="87eF1S2lNxK1gvHGaXlv-12" edge="1">
          <mxGeometry relative="1" as="geometry" />
        </mxCell>
        <mxCell id="87eF1S2lNxK1gvHGaXlv-15" style="edgeStyle=orthogonalEdgeStyle;rounded=0;orthogonalLoop=1;jettySize=auto;html=1;exitX=0.5;exitY=1;exitDx=0;exitDy=0;exitPerimeter=0;" parent="87eF1S2lNxK1gvHGaXlv-2" source="87eF1S2lNxK1gvHGaXlv-9" target="87eF1S2lNxK1gvHGaXlv-13" edge="1">
          <mxGeometry relative="1" as="geometry" />
        </mxCell>
        <mxCell id="87eF1S2lNxK1gvHGaXlv-9" value="Выбирает из &lt;br&gt;списка настройку&amp;nbsp;" style="points=[[0.145,0.145,0],[0.5,0,0],[0.855,0.145,0],[1,0.5,0],[0.855,0.855,0],[0.5,1,0],[0.145,0.855,0],[0,0.5,0]];shape=mxgraph.bpmn.event;html=1;verticalLabelPosition=bottom;labelBackgroundColor=#ffffff;verticalAlign=top;align=center;perimeter=ellipsePerimeter;outlineConnect=0;aspect=fixed;outline=standard;symbol=general;" parent="87eF1S2lNxK1gvHGaXlv-2" vertex="1">
          <mxGeometry x="85" y="280" width="50" height="50" as="geometry" />
        </mxCell>
        <mxCell id="87eF1S2lNxK1gvHGaXlv-12" value="Вызывает загрузку по&lt;br&gt;&amp;nbsp;настройке" style="points=[[0.145,0.145,0],[0.5,0,0],[0.855,0.145,0],[1,0.5,0],[0.855,0.855,0],[0.5,1,0],[0.145,0.855,0],[0,0.5,0]];shape=mxgraph.bpmn.event;html=1;verticalLabelPosition=bottom;labelBackgroundColor=#ffffff;verticalAlign=top;align=center;perimeter=ellipsePerimeter;outlineConnect=0;aspect=fixed;outline=standard;symbol=general;" parent="87eF1S2lNxK1gvHGaXlv-2" vertex="1">
          <mxGeometry x="60" y="440" width="50" height="50" as="geometry" />
        </mxCell>
        <mxCell id="87eF1S2lNxK1gvHGaXlv-13" value="Вызывает редактирование&lt;br&gt;&amp;nbsp;настройки" style="points=[[0.145,0.145,0],[0.5,0,0],[0.855,0.145,0],[1,0.5,0],[0.855,0.855,0],[0.5,1,0],[0.145,0.855,0],[0,0.5,0]];shape=mxgraph.bpmn.event;html=1;verticalLabelPosition=bottom;labelBackgroundColor=#ffffff;verticalAlign=top;align=center;perimeter=ellipsePerimeter;outlineConnect=0;aspect=fixed;outline=standard;symbol=general;" parent="87eF1S2lNxK1gvHGaXlv-2" vertex="1">
          <mxGeometry x="220" y="430" width="50" height="50" as="geometry" />
        </mxCell>
        <mxCell id="87eF1S2lNxK1gvHGaXlv-19" value="Выполняет редактирование &lt;br&gt;настройки. &lt;br&gt;Вызывает сохранение" style="points=[[0.145,0.145,0],[0.5,0,0],[0.855,0.145,0],[1,0.5,0],[0.855,0.855,0],[0.5,1,0],[0.145,0.855,0],[0,0.5,0]];shape=mxgraph.bpmn.event;html=1;verticalLabelPosition=bottom;labelBackgroundColor=#ffffff;verticalAlign=top;align=center;perimeter=ellipsePerimeter;outlineConnect=0;aspect=fixed;outline=standard;symbol=general;" parent="87eF1S2lNxK1gvHGaXlv-2" vertex="1">
          <mxGeometry x="410" y="780" width="50" height="50" as="geometry" />
        </mxCell>
        <mxCell id="87eF1S2lNxK1gvHGaXlv-7" style="edgeStyle=orthogonalEdgeStyle;rounded=0;orthogonalLoop=1;jettySize=auto;html=1;entryX=0.5;entryY=0;entryDx=0;entryDy=0;entryPerimeter=0;" parent="87eF1S2lNxK1gvHGaXlv-1" source="87eF1S2lNxK1gvHGaXlv-5" target="87eF1S2lNxK1gvHGaXlv-6" edge="1">
          <mxGeometry relative="1" as="geometry" />
        </mxCell>
        <mxCell id="87eF1S2lNxK1gvHGaXlv-10" style="edgeStyle=orthogonalEdgeStyle;rounded=0;orthogonalLoop=1;jettySize=auto;html=1;entryX=0.5;entryY=0;entryDx=0;entryDy=0;entryPerimeter=0;exitX=0.5;exitY=1;exitDx=0;exitDy=0;exitPerimeter=0;" parent="87eF1S2lNxK1gvHGaXlv-1" source="87eF1S2lNxK1gvHGaXlv-6" target="87eF1S2lNxK1gvHGaXlv-8" edge="1">
          <mxGeometry relative="1" as="geometry" />
        </mxCell>
        <mxCell id="87eF1S2lNxK1gvHGaXlv-11" style="edgeStyle=orthogonalEdgeStyle;rounded=0;orthogonalLoop=1;jettySize=auto;html=1;entryX=0.5;entryY=0;entryDx=0;entryDy=0;entryPerimeter=0;exitX=0.5;exitY=1;exitDx=0;exitDy=0;exitPerimeter=0;" parent="87eF1S2lNxK1gvHGaXlv-1" source="87eF1S2lNxK1gvHGaXlv-6" target="87eF1S2lNxK1gvHGaXlv-9" edge="1">
          <mxGeometry relative="1" as="geometry" />
        </mxCell>
        <mxCell id="87eF1S2lNxK1gvHGaXlv-17" style="edgeStyle=orthogonalEdgeStyle;rounded=0;orthogonalLoop=1;jettySize=auto;html=1;exitX=0.5;exitY=1;exitDx=0;exitDy=0;exitPerimeter=0;" parent="87eF1S2lNxK1gvHGaXlv-1" source="87eF1S2lNxK1gvHGaXlv-8" target="87eF1S2lNxK1gvHGaXlv-16" edge="1">
          <mxGeometry relative="1" as="geometry" />
        </mxCell>
        <mxCell id="87eF1S2lNxK1gvHGaXlv-18" style="edgeStyle=orthogonalEdgeStyle;rounded=0;orthogonalLoop=1;jettySize=auto;html=1;entryX=0.5;entryY=0;entryDx=0;entryDy=0;entryPerimeter=0;exitX=0.5;exitY=1;exitDx=0;exitDy=0;exitPerimeter=0;" parent="87eF1S2lNxK1gvHGaXlv-1" source="87eF1S2lNxK1gvHGaXlv-13" target="87eF1S2lNxK1gvHGaXlv-16" edge="1">
          <mxGeometry relative="1" as="geometry" />
        </mxCell>
        <mxCell id="87eF1S2lNxK1gvHGaXlv-20" style="edgeStyle=orthogonalEdgeStyle;rounded=0;orthogonalLoop=1;jettySize=auto;html=1;entryX=0.5;entryY=0;entryDx=0;entryDy=0;entryPerimeter=0;exitX=0.5;exitY=1;exitDx=0;exitDy=0;exitPerimeter=0;" parent="87eF1S2lNxK1gvHGaXlv-1" source="87eF1S2lNxK1gvHGaXlv-16" target="87eF1S2lNxK1gvHGaXlv-19" edge="1">
          <mxGeometry relative="1" as="geometry" />
        </mxCell>
        <mxCell id="87eF1S2lNxK1gvHGaXlv-22" style="edgeStyle=orthogonalEdgeStyle;rounded=0;orthogonalLoop=1;jettySize=auto;html=1;entryX=0.5;entryY=0;entryDx=0;entryDy=0;entryPerimeter=0;exitX=0.5;exitY=1;exitDx=0;exitDy=0;exitPerimeter=0;" parent="87eF1S2lNxK1gvHGaXlv-1" source="87eF1S2lNxK1gvHGaXlv-12" target="87eF1S2lNxK1gvHGaXlv-21" edge="1">
          <mxGeometry relative="1" as="geometry">
            <Array as="points">
              <mxPoint x="105" y="1450" />
              <mxPoint x="820" y="1450" />
            </Array>
          </mxGeometry>
        </mxCell>
        <mxCell id="87eF1S2lNxK1gvHGaXlv-24" style="edgeStyle=orthogonalEdgeStyle;rounded=0;orthogonalLoop=1;jettySize=auto;html=1;entryX=0.5;entryY=0;entryDx=0;entryDy=0;entryPerimeter=0;exitX=0.5;exitY=1;exitDx=0;exitDy=0;exitPerimeter=0;" parent="87eF1S2lNxK1gvHGaXlv-1" source="87eF1S2lNxK1gvHGaXlv-19" target="87eF1S2lNxK1gvHGaXlv-23" edge="1">
          <mxGeometry relative="1" as="geometry" />
        </mxCell>
        <mxCell id="87eF1S2lNxK1gvHGaXlv-3" value="Система" style="swimlane;html=1;startSize=20;" parent="87eF1S2lNxK1gvHGaXlv-1" vertex="1">
          <mxGeometry x="560" width="580" height="2030" as="geometry" />
        </mxCell>
        <mxCell id="87eF1S2lNxK1gvHGaXlv-6" value="Отображает выбор настройки" style="points=[[0.25,0,0],[0.5,0,0],[0.75,0,0],[1,0.25,0],[1,0.5,0],[1,0.75,0],[0.75,1,0],[0.5,1,0],[0.25,1,0],[0,0.75,0],[0,0.5,0],[0,0.25,0]];shape=mxgraph.bpmn.task;whiteSpace=wrap;rectStyle=rounded;size=10;html=1;taskMarker=abstract;" parent="87eF1S2lNxK1gvHGaXlv-3" vertex="1">
          <mxGeometry x="110" y="130" width="120" height="80" as="geometry" />
        </mxCell>
        <mxCell id="87eF1S2lNxK1gvHGaXlv-16" value="Отображает редактирование настройки" style="points=[[0.25,0,0],[0.5,0,0],[0.75,0,0],[1,0.25,0],[1,0.5,0],[1,0.75,0],[0.75,1,0],[0.5,1,0],[0.25,1,0],[0,0.75,0],[0,0.5,0],[0,0.25,0]];shape=mxgraph.bpmn.task;whiteSpace=wrap;rectStyle=rounded;size=10;html=1;taskMarker=abstract;" parent="87eF1S2lNxK1gvHGaXlv-3" vertex="1">
          <mxGeometry x="110" y="560" width="120" height="80" as="geometry" />
        </mxCell>
        <mxCell id="87eF1S2lNxK1gvHGaXlv-27" style="edgeStyle=orthogonalEdgeStyle;rounded=0;orthogonalLoop=1;jettySize=auto;html=1;entryX=0.5;entryY=0;entryDx=0;entryDy=0;entryPerimeter=0;exitX=0.5;exitY=1;exitDx=0;exitDy=0;exitPerimeter=0;" parent="87eF1S2lNxK1gvHGaXlv-3" source="87eF1S2lNxK1gvHGaXlv-21" target="87eF1S2lNxK1gvHGaXlv-26" edge="1">
          <mxGeometry relative="1" as="geometry" />
        </mxCell>
        <mxCell id="87eF1S2lNxK1gvHGaXlv-21" value="Выполняет загрузку по созданной настройке." style="points=[[0.25,0,0],[0.5,0,0],[0.75,0,0],[1,0.25,0],[1,0.5,0],[1,0.75,0],[0.75,1,0],[0.5,1,0],[0.25,1,0],[0,0.75,0],[0,0.5,0],[0,0.25,0]];shape=mxgraph.bpmn.task;whiteSpace=wrap;rectStyle=rounded;size=10;html=1;taskMarker=abstract;" parent="87eF1S2lNxK1gvHGaXlv-3" vertex="1">
          <mxGeometry x="200" y="1480" width="120" height="80" as="geometry" />
        </mxCell>
        <mxCell id="87eF1S2lNxK1gvHGaXlv-28" style="edgeStyle=orthogonalEdgeStyle;rounded=0;orthogonalLoop=1;jettySize=auto;html=1;entryX=0.5;entryY=0;entryDx=0;entryDy=0;entryPerimeter=0;exitX=0.5;exitY=1;exitDx=0;exitDy=0;exitPerimeter=0;" parent="87eF1S2lNxK1gvHGaXlv-3" source="87eF1S2lNxK1gvHGaXlv-23" target="87eF1S2lNxK1gvHGaXlv-25" edge="1">
          <mxGeometry relative="1" as="geometry" />
        </mxCell>
        <mxCell id="87eF1S2lNxK1gvHGaXlv-23" value="Проверяет и сохраняет настройки" style="points=[[0.25,0,0],[0.5,0,0],[0.75,0,0],[1,0.25,0],[1,0.5,0],[1,0.75,0],[0.75,1,0],[0.5,1,0],[0.25,1,0],[0,0.75,0],[0,0.5,0],[0,0.25,0]];shape=mxgraph.bpmn.task;whiteSpace=wrap;rectStyle=rounded;size=10;html=1;taskMarker=abstract;" parent="87eF1S2lNxK1gvHGaXlv-3" vertex="1">
          <mxGeometry x="430" y="940" width="120" height="80" as="geometry" />
        </mxCell>
        <mxCell id="87eF1S2lNxK1gvHGaXlv-41" style="edgeStyle=orthogonalEdgeStyle;rounded=0;orthogonalLoop=1;jettySize=auto;html=1;entryX=0.5;entryY=0;entryDx=0;entryDy=0;entryPerimeter=0;" parent="87eF1S2lNxK1gvHGaXlv-3" source="87eF1S2lNxK1gvHGaXlv-25" target="87eF1S2lNxK1gvHGaXlv-40" edge="1">
          <mxGeometry relative="1" as="geometry" />
        </mxCell>
        <mxCell id="87eF1S2lNxK1gvHGaXlv-44" value="Нет" style="edgeLabel;html=1;align=center;verticalAlign=middle;resizable=0;points=[];" parent="87eF1S2lNxK1gvHGaXlv-41" vertex="1" connectable="0">
          <mxGeometry x="-0.5981" y="-2" relative="1" as="geometry">
            <mxPoint as="offset" />
          </mxGeometry>
        </mxCell>
        <mxCell id="87eF1S2lNxK1gvHGaXlv-42" style="edgeStyle=orthogonalEdgeStyle;rounded=0;orthogonalLoop=1;jettySize=auto;html=1;entryX=0.5;entryY=0;entryDx=0;entryDy=0;entryPerimeter=0;" parent="87eF1S2lNxK1gvHGaXlv-3" source="87eF1S2lNxK1gvHGaXlv-25" target="87eF1S2lNxK1gvHGaXlv-39" edge="1">
          <mxGeometry relative="1" as="geometry" />
        </mxCell>
        <mxCell id="87eF1S2lNxK1gvHGaXlv-43" value="Да" style="edgeLabel;html=1;align=center;verticalAlign=middle;resizable=0;points=[];" parent="87eF1S2lNxK1gvHGaXlv-42" vertex="1" connectable="0">
          <mxGeometry x="-0.4926" y="-1" relative="1" as="geometry">
            <mxPoint as="offset" />
          </mxGeometry>
        </mxCell>
        <mxCell id="87eF1S2lNxK1gvHGaXlv-25" value="Есть ошибки в настройках?" style="points=[[0.25,0.25,0],[0.5,0,0],[0.75,0.25,0],[1,0.5,0],[0.75,0.75,0],[0.5,1,0],[0.25,0.75,0],[0,0.5,0]];shape=mxgraph.bpmn.gateway2;html=1;verticalLabelPosition=bottom;labelBackgroundColor=#ffffff;verticalAlign=top;align=center;perimeter=rhombusPerimeter;outlineConnect=0;outline=none;symbol=none;" parent="87eF1S2lNxK1gvHGaXlv-3" vertex="1">
          <mxGeometry x="300" y="1080" width="50" height="50" as="geometry" />
        </mxCell>
        <mxCell id="87eF1S2lNxK1gvHGaXlv-31" style="edgeStyle=orthogonalEdgeStyle;rounded=0;orthogonalLoop=1;jettySize=auto;html=1;entryX=0.5;entryY=0;entryDx=0;entryDy=0;entryPerimeter=0;" parent="87eF1S2lNxK1gvHGaXlv-3" source="87eF1S2lNxK1gvHGaXlv-26" target="87eF1S2lNxK1gvHGaXlv-30" edge="1">
          <mxGeometry relative="1" as="geometry" />
        </mxCell>
        <mxCell id="87eF1S2lNxK1gvHGaXlv-34" value="Нет" style="edgeLabel;html=1;align=center;verticalAlign=middle;resizable=0;points=[];" parent="87eF1S2lNxK1gvHGaXlv-31" vertex="1" connectable="0">
          <mxGeometry x="-0.7207" y="2" relative="1" as="geometry">
            <mxPoint x="-1" as="offset" />
          </mxGeometry>
        </mxCell>
        <mxCell id="87eF1S2lNxK1gvHGaXlv-32" style="edgeStyle=orthogonalEdgeStyle;rounded=0;orthogonalLoop=1;jettySize=auto;html=1;entryX=0.5;entryY=0;entryDx=0;entryDy=0;entryPerimeter=0;" parent="87eF1S2lNxK1gvHGaXlv-3" source="87eF1S2lNxK1gvHGaXlv-26" target="87eF1S2lNxK1gvHGaXlv-29" edge="1">
          <mxGeometry relative="1" as="geometry" />
        </mxCell>
        <mxCell id="87eF1S2lNxK1gvHGaXlv-33" value="Да" style="edgeLabel;html=1;align=center;verticalAlign=middle;resizable=0;points=[];" parent="87eF1S2lNxK1gvHGaXlv-32" vertex="1" connectable="0">
          <mxGeometry x="-0.6796" y="-2" relative="1" as="geometry">
            <mxPoint x="-1" as="offset" />
          </mxGeometry>
        </mxCell>
        <mxCell id="87eF1S2lNxK1gvHGaXlv-26" value="Есть ошибки при загрузке?" style="points=[[0.25,0.25,0],[0.5,0,0],[0.75,0.25,0],[1,0.5,0],[0.75,0.75,0],[0.5,1,0],[0.25,0.75,0],[0,0.5,0]];shape=mxgraph.bpmn.gateway2;html=1;verticalLabelPosition=bottom;labelBackgroundColor=#ffffff;verticalAlign=top;align=center;perimeter=rhombusPerimeter;outlineConnect=0;outline=none;symbol=none;" parent="87eF1S2lNxK1gvHGaXlv-3" vertex="1">
          <mxGeometry x="235" y="1624" width="50" height="50" as="geometry" />
        </mxCell>
        <mxCell id="87eF1S2lNxK1gvHGaXlv-36" style="edgeStyle=orthogonalEdgeStyle;rounded=0;orthogonalLoop=1;jettySize=auto;html=1;entryX=0.5;entryY=0;entryDx=0;entryDy=0;entryPerimeter=0;exitX=0.5;exitY=1;exitDx=0;exitDy=0;exitPerimeter=0;" parent="87eF1S2lNxK1gvHGaXlv-3" source="87eF1S2lNxK1gvHGaXlv-29" target="87eF1S2lNxK1gvHGaXlv-35" edge="1">
          <mxGeometry relative="1" as="geometry" />
        </mxCell>
        <mxCell id="87eF1S2lNxK1gvHGaXlv-29" value="Выводит пользователю ошибки" style="points=[[0.25,0,0],[0.5,0,0],[0.75,0,0],[1,0.25,0],[1,0.5,0],[1,0.75,0],[0.75,1,0],[0.5,1,0],[0.25,1,0],[0,0.75,0],[0,0.5,0],[0,0.25,0]];shape=mxgraph.bpmn.task;whiteSpace=wrap;rectStyle=rounded;size=10;html=1;taskMarker=abstract;" parent="87eF1S2lNxK1gvHGaXlv-3" vertex="1">
          <mxGeometry x="70" y="1750" width="120" height="80" as="geometry" />
        </mxCell>
        <mxCell id="87eF1S2lNxK1gvHGaXlv-38" style="edgeStyle=orthogonalEdgeStyle;rounded=0;orthogonalLoop=1;jettySize=auto;html=1;entryX=0.5;entryY=0;entryDx=0;entryDy=0;entryPerimeter=0;exitX=0.5;exitY=1;exitDx=0;exitDy=0;exitPerimeter=0;" parent="87eF1S2lNxK1gvHGaXlv-3" source="87eF1S2lNxK1gvHGaXlv-30" target="87eF1S2lNxK1gvHGaXlv-35" edge="1">
          <mxGeometry relative="1" as="geometry" />
        </mxCell>
        <mxCell id="87eF1S2lNxK1gvHGaXlv-30" value="Сохраняет загруженные данные" style="points=[[0.25,0,0],[0.5,0,0],[0.75,0,0],[1,0.25,0],[1,0.5,0],[1,0.75,0],[0.75,1,0],[0.5,1,0],[0.25,1,0],[0,0.75,0],[0,0.5,0],[0,0.25,0]];shape=mxgraph.bpmn.task;whiteSpace=wrap;rectStyle=rounded;size=10;html=1;taskMarker=abstract;" parent="87eF1S2lNxK1gvHGaXlv-3" vertex="1">
          <mxGeometry x="380" y="1750" width="120" height="80" as="geometry" />
        </mxCell>
        <mxCell id="87eF1S2lNxK1gvHGaXlv-35" value="Конец процесса" style="points=[[0.145,0.145,0],[0.5,0,0],[0.855,0.145,0],[1,0.5,0],[0.855,0.855,0],[0.5,1,0],[0.145,0.855,0],[0,0.5,0]];shape=mxgraph.bpmn.event;html=1;verticalLabelPosition=bottom;labelBackgroundColor=#ffffff;verticalAlign=top;align=center;perimeter=ellipsePerimeter;outlineConnect=0;aspect=fixed;outline=end;symbol=terminate;" parent="87eF1S2lNxK1gvHGaXlv-3" vertex="1">
          <mxGeometry x="250" y="1950" width="50" height="50" as="geometry" />
        </mxCell>
        <mxCell id="87eF1S2lNxK1gvHGaXlv-39" value="Выводит пользователю ошибки" style="points=[[0.25,0,0],[0.5,0,0],[0.75,0,0],[1,0.25,0],[1,0.5,0],[1,0.75,0],[0.75,1,0],[0.5,1,0],[0.25,1,0],[0,0.75,0],[0,0.5,0],[0,0.25,0]];shape=mxgraph.bpmn.task;whiteSpace=wrap;rectStyle=rounded;size=10;html=1;taskMarker=abstract;" parent="87eF1S2lNxK1gvHGaXlv-3" vertex="1">
          <mxGeometry x="100" y="1200" width="120" height="80" as="geometry" />
        </mxCell>
        <mxCell id="87eF1S2lNxK1gvHGaXlv-46" style="edgeStyle=orthogonalEdgeStyle;rounded=0;orthogonalLoop=1;jettySize=auto;html=1;entryX=0.5;entryY=0;entryDx=0;entryDy=0;entryPerimeter=0;" parent="87eF1S2lNxK1gvHGaXlv-3" source="87eF1S2lNxK1gvHGaXlv-40" target="87eF1S2lNxK1gvHGaXlv-45" edge="1">
          <mxGeometry relative="1" as="geometry" />
        </mxCell>
        <mxCell id="87eF1S2lNxK1gvHGaXlv-40" value="Сохраняет заданные настройки. Закрывает редактирование настроек" style="points=[[0.25,0,0],[0.5,0,0],[0.75,0,0],[1,0.25,0],[1,0.5,0],[1,0.75,0],[0.75,1,0],[0.5,1,0],[0.25,1,0],[0,0.75,0],[0,0.5,0],[0,0.25,0]];shape=mxgraph.bpmn.task;whiteSpace=wrap;rectStyle=rounded;size=10;html=1;taskMarker=abstract;" parent="87eF1S2lNxK1gvHGaXlv-3" vertex="1">
          <mxGeometry x="410" y="1210" width="120" height="80" as="geometry" />
        </mxCell>
        <mxCell id="87eF1S2lNxK1gvHGaXlv-45" value="Конец процесса" style="points=[[0.145,0.145,0],[0.5,0,0],[0.855,0.145,0],[1,0.5,0],[0.855,0.855,0],[0.5,1,0],[0.145,0.855,0],[0,0.5,0]];shape=mxgraph.bpmn.event;html=1;verticalLabelPosition=bottom;labelBackgroundColor=#ffffff;verticalAlign=top;align=center;perimeter=ellipsePerimeter;outlineConnect=0;aspect=fixed;outline=end;symbol=terminate;" parent="87eF1S2lNxK1gvHGaXlv-3" vertex="1">
          <mxGeometry x="445" y="1340" width="50" height="50" as="geometry" />
        </mxCell>
        <mxCell id="87eF1S2lNxK1gvHGaXlv-47" style="edgeStyle=orthogonalEdgeStyle;rounded=0;orthogonalLoop=1;jettySize=auto;html=1;entryX=0.5;entryY=0;entryDx=0;entryDy=0;entryPerimeter=0;" parent="87eF1S2lNxK1gvHGaXlv-1" source="87eF1S2lNxK1gvHGaXlv-39" target="87eF1S2lNxK1gvHGaXlv-19" edge="1">
          <mxGeometry relative="1" as="geometry">
            <Array as="points">
              <mxPoint x="290" y="1240" />
              <mxPoint x="290" y="730" />
              <mxPoint x="455" y="730" />
            </Array>
          </mxGeometry>
        </mxCell>
        <mxCell id="87eF1S2lNxK1gvHGaXlv-48" value="Загрузка из табличного документа" style="rounded=0;whiteSpace=wrap;html=1;" parent="1" vertex="1">
          <mxGeometry x="160" y="20" width="1140" height="60" as="geometry" />
        </mxCell>
      </root>
    </mxGraphModel>
  </diagram>
  <diagram id="6GckWbS3Git7gFdJZ3oE" name="Процесс редактирования настроек">
    <mxGraphModel dx="1824" dy="952" grid="1" gridSize="10" guides="1" tooltips="1" connect="1" arrows="1" fold="1" page="1" pageScale="1" pageWidth="827" pageHeight="1169" math="0" shadow="0">
      <root>
        <mxCell id="0" />
        <mxCell id="1" parent="0" />
        <mxCell id="TbWgfQ1BpCs46w1cBOL2-2" value="Pool" style="swimlane;html=1;childLayout=stackLayout;resizeParent=1;resizeParentMax=0;startSize=20;horizontal=0;horizontalStack=1;whiteSpace=wrap;" parent="1" vertex="1">
          <mxGeometry x="40" y="40" width="920" height="1550" as="geometry" />
        </mxCell>
        <mxCell id="TbWgfQ1BpCs46w1cBOL2-3" value="Пользователь" style="swimlane;html=1;startSize=20;" parent="TbWgfQ1BpCs46w1cBOL2-2" vertex="1">
          <mxGeometry x="20" width="480" height="1550" as="geometry" />
        </mxCell>
        <mxCell id="y7Gk_75M8xc8uff-1NYp-1" value="Вызывает редактирование &lt;br&gt;настройки" style="points=[[0.145,0.145,0],[0.5,0,0],[0.855,0.145,0],[1,0.5,0],[0.855,0.855,0],[0.5,1,0],[0.145,0.855,0],[0,0.5,0]];shape=mxgraph.bpmn.event;html=1;verticalLabelPosition=bottom;labelBackgroundColor=#ffffff;verticalAlign=top;align=center;perimeter=ellipsePerimeter;outlineConnect=0;aspect=fixed;outline=standard;symbol=general;" parent="TbWgfQ1BpCs46w1cBOL2-3" vertex="1">
          <mxGeometry x="145" y="40" width="50" height="50" as="geometry" />
        </mxCell>
        <mxCell id="y7Gk_75M8xc8uff-1NYp-9" value="Открывает Excel файл,&lt;br&gt;редактирует номера и заполняемые &lt;br&gt;значения реквизитов типа сообщения" style="points=[[0.145,0.145,0],[0.5,0,0],[0.855,0.145,0],[1,0.5,0],[0.855,0.855,0],[0.5,1,0],[0.145,0.855,0],[0,0.5,0]];shape=mxgraph.bpmn.event;html=1;verticalLabelPosition=bottom;labelBackgroundColor=#ffffff;verticalAlign=top;align=center;perimeter=ellipsePerimeter;outlineConnect=0;aspect=fixed;outline=standard;symbol=general;" parent="TbWgfQ1BpCs46w1cBOL2-3" vertex="1">
          <mxGeometry x="100" y="1230" width="50" height="50" as="geometry" />
        </mxCell>
        <mxCell id="y7Gk_75M8xc8uff-1NYp-12" value="Вызывает сохранение настроек" style="points=[[0.145,0.145,0],[0.5,0,0],[0.855,0.145,0],[1,0.5,0],[0.855,0.855,0],[0.5,1,0],[0.145,0.855,0],[0,0.5,0]];shape=mxgraph.bpmn.event;html=1;verticalLabelPosition=bottom;labelBackgroundColor=#ffffff;verticalAlign=top;align=center;perimeter=ellipsePerimeter;outlineConnect=0;aspect=fixed;outline=end;symbol=terminate;" parent="TbWgfQ1BpCs46w1cBOL2-3" vertex="1">
          <mxGeometry x="100" y="1450" width="50" height="50" as="geometry" />
        </mxCell>
        <mxCell id="y7Gk_75M8xc8uff-1NYp-13" style="edgeStyle=orthogonalEdgeStyle;rounded=0;orthogonalLoop=1;jettySize=auto;html=1;" parent="TbWgfQ1BpCs46w1cBOL2-3" source="y7Gk_75M8xc8uff-1NYp-9" target="y7Gk_75M8xc8uff-1NYp-12" edge="1">
          <mxGeometry relative="1" as="geometry" />
        </mxCell>
        <mxCell id="S3SroFcMeXyD0w53rGOh-1" value="Нет" style="edgeLabel;html=1;align=center;verticalAlign=middle;resizable=0;points=[];" vertex="1" connectable="0" parent="TbWgfQ1BpCs46w1cBOL2-3">
          <mxGeometry x="245" y="777" as="geometry" />
        </mxCell>
        <mxCell id="S3SroFcMeXyD0w53rGOh-2" value="Да" style="edgeLabel;html=1;align=center;verticalAlign=middle;resizable=0;points=[];" vertex="1" connectable="0" parent="TbWgfQ1BpCs46w1cBOL2-3">
          <mxGeometry x="90" y="774" as="geometry" />
        </mxCell>
        <mxCell id="S3SroFcMeXyD0w53rGOh-4" style="edgeStyle=orthogonalEdgeStyle;rounded=0;orthogonalLoop=1;jettySize=auto;html=1;entryX=0.5;entryY=0;entryDx=0;entryDy=0;entryPerimeter=0;exitX=0;exitY=0.5;exitDx=0;exitDy=0;exitPerimeter=0;" edge="1" parent="TbWgfQ1BpCs46w1cBOL2-3" source="S3SroFcMeXyD0w53rGOh-3" target="y7Gk_75M8xc8uff-1NYp-9">
          <mxGeometry relative="1" as="geometry" />
        </mxCell>
        <mxCell id="S3SroFcMeXyD0w53rGOh-3" value="Это новая настройка?" style="points=[[0.25,0.25,0],[0.5,0,0],[0.75,0.25,0],[1,0.5,0],[0.75,0.75,0],[0.5,1,0],[0.25,0.75,0],[0,0.5,0]];shape=mxgraph.bpmn.gateway2;html=1;verticalLabelPosition=bottom;labelBackgroundColor=#ffffff;verticalAlign=top;align=center;perimeter=rhombusPerimeter;outlineConnect=0;outline=none;symbol=none;fillColor=#dae8fc;strokeColor=#6c8ebf;" vertex="1" parent="TbWgfQ1BpCs46w1cBOL2-3">
          <mxGeometry x="150" y="750" width="50" height="50" as="geometry" />
        </mxCell>
        <mxCell id="y7Gk_75M8xc8uff-1NYp-3" style="edgeStyle=orthogonalEdgeStyle;rounded=0;orthogonalLoop=1;jettySize=auto;html=1;entryX=0.5;entryY=0;entryDx=0;entryDy=0;entryPerimeter=0;exitX=0.5;exitY=1;exitDx=0;exitDy=0;exitPerimeter=0;" parent="TbWgfQ1BpCs46w1cBOL2-2" source="y7Gk_75M8xc8uff-1NYp-1" target="y7Gk_75M8xc8uff-1NYp-2" edge="1">
          <mxGeometry relative="1" as="geometry" />
        </mxCell>
        <mxCell id="TbWgfQ1BpCs46w1cBOL2-4" value="Система" style="swimlane;html=1;startSize=20;" parent="TbWgfQ1BpCs46w1cBOL2-2" vertex="1">
          <mxGeometry x="500" width="420" height="1550" as="geometry" />
        </mxCell>
        <mxCell id="y7Gk_75M8xc8uff-1NYp-6" style="edgeStyle=orthogonalEdgeStyle;rounded=0;orthogonalLoop=1;jettySize=auto;html=1;" parent="TbWgfQ1BpCs46w1cBOL2-4" source="y7Gk_75M8xc8uff-1NYp-2" target="y7Gk_75M8xc8uff-1NYp-4" edge="1">
          <mxGeometry relative="1" as="geometry" />
        </mxCell>
        <mxCell id="y7Gk_75M8xc8uff-1NYp-2" value="Требует выбрать:&lt;br&gt;1. Тип сообщения (Справочник.ТипыСообщенийАОД, НаправлениеОбмена = Входящее) для загрузки&lt;br&gt;2. Отправителя данных (Справочник.УчастникиАОД, клиентская система)&lt;br&gt;3. Получателя данных (Справочник.УчастникиАОД, наша система)" style="points=[[0.25,0,0],[0.5,0,0],[0.75,0,0],[1,0.25,0],[1,0.5,0],[1,0.75,0],[0.75,1,0],[0.5,1,0],[0.25,1,0],[0,0.75,0],[0,0.5,0],[0,0.25,0]];shape=mxgraph.bpmn.task;whiteSpace=wrap;rectStyle=rounded;size=10;html=1;taskMarker=abstract;" parent="TbWgfQ1BpCs46w1cBOL2-4" vertex="1">
          <mxGeometry x="14" y="180" width="380" height="150" as="geometry" />
        </mxCell>
        <mxCell id="y7Gk_75M8xc8uff-1NYp-8" style="edgeStyle=orthogonalEdgeStyle;rounded=0;orthogonalLoop=1;jettySize=auto;html=1;entryX=0.5;entryY=0;entryDx=0;entryDy=0;entryPerimeter=0;" parent="TbWgfQ1BpCs46w1cBOL2-4" source="y7Gk_75M8xc8uff-1NYp-4" target="y7Gk_75M8xc8uff-1NYp-7" edge="1">
          <mxGeometry relative="1" as="geometry" />
        </mxCell>
        <mxCell id="y7Gk_75M8xc8uff-1NYp-4" value="Выполняет чтение схемы пакета из макета обработки с именем&amp;nbsp;СхемаПакета (xsd)" style="points=[[0.25,0,0],[0.5,0,0],[0.75,0,0],[1,0.25,0],[1,0.5,0],[1,0.75,0],[0.75,1,0],[0.5,1,0],[0.25,1,0],[0,0.75,0],[0,0.5,0],[0,0.25,0]];shape=mxgraph.bpmn.task;whiteSpace=wrap;rectStyle=rounded;size=10;html=1;taskMarker=abstract;" parent="TbWgfQ1BpCs46w1cBOL2-4" vertex="1">
          <mxGeometry x="80" y="380" width="250" height="100" as="geometry" />
        </mxCell>
        <mxCell id="y7Gk_75M8xc8uff-1NYp-7" value="Отображает форму настроек" style="points=[[0.25,0,0],[0.5,0,0],[0.75,0,0],[1,0.25,0],[1,0.5,0],[1,0.75,0],[0.75,1,0],[0.5,1,0],[0.25,1,0],[0,0.75,0],[0,0.5,0],[0,0.25,0]];shape=mxgraph.bpmn.task;whiteSpace=wrap;rectStyle=rounded;size=10;html=1;taskMarker=abstract;" parent="TbWgfQ1BpCs46w1cBOL2-4" vertex="1">
          <mxGeometry x="80" y="560" width="250" height="80" as="geometry" />
        </mxCell>
        <mxCell id="S3SroFcMeXyD0w53rGOh-5" value="Загружаем настройку из хранилища" style="points=[[0.25,0,0],[0.5,0,0],[0.75,0,0],[1,0.25,0],[1,0.5,0],[1,0.75,0],[0.75,1,0],[0.5,1,0],[0.25,1,0],[0,0.75,0],[0,0.5,0],[0,0.25,0]];shape=mxgraph.bpmn.task;whiteSpace=wrap;rectStyle=rounded;size=10;html=1;taskMarker=abstract;fillColor=#dae8fc;strokeColor=#6c8ebf;" vertex="1" parent="TbWgfQ1BpCs46w1cBOL2-4">
          <mxGeometry x="85" y="950" width="250" height="80" as="geometry" />
        </mxCell>
        <mxCell id="y7Gk_75M8xc8uff-1NYp-10" style="edgeStyle=orthogonalEdgeStyle;rounded=0;orthogonalLoop=1;jettySize=auto;html=1;entryX=0.5;entryY=0;entryDx=0;entryDy=0;entryPerimeter=0;exitX=0.5;exitY=1;exitDx=0;exitDy=0;exitPerimeter=0;" parent="TbWgfQ1BpCs46w1cBOL2-2" source="y7Gk_75M8xc8uff-1NYp-7" target="S3SroFcMeXyD0w53rGOh-3" edge="1">
          <mxGeometry relative="1" as="geometry">
            <Array as="points">
              <mxPoint x="705" y="670" />
              <mxPoint x="195" y="670" />
            </Array>
          </mxGeometry>
        </mxCell>
        <mxCell id="VlwOsn_wa1RrKDnm9oJW-5" style="edgeStyle=orthogonalEdgeStyle;rounded=0;orthogonalLoop=1;jettySize=auto;html=1;" edge="1" parent="TbWgfQ1BpCs46w1cBOL2-2" source="S3SroFcMeXyD0w53rGOh-3" target="S3SroFcMeXyD0w53rGOh-5">
          <mxGeometry relative="1" as="geometry" />
        </mxCell>
        <mxCell id="VlwOsn_wa1RrKDnm9oJW-6" style="edgeStyle=orthogonalEdgeStyle;rounded=0;orthogonalLoop=1;jettySize=auto;html=1;entryX=1;entryY=0.5;entryDx=0;entryDy=0;entryPerimeter=0;exitX=0.5;exitY=1;exitDx=0;exitDy=0;exitPerimeter=0;" edge="1" parent="TbWgfQ1BpCs46w1cBOL2-2" source="S3SroFcMeXyD0w53rGOh-5" target="y7Gk_75M8xc8uff-1NYp-9">
          <mxGeometry relative="1" as="geometry" />
        </mxCell>
        <mxCell id="y7Gk_75M8xc8uff-1NYp-17" style="edgeStyle=orthogonalEdgeStyle;rounded=0;orthogonalLoop=1;jettySize=auto;html=1;entryX=0.5;entryY=0;entryDx=0;entryDy=0;" parent="1" source="y7Gk_75M8xc8uff-1NYp-14" target="y7Gk_75M8xc8uff-1NYp-16" edge="1">
          <mxGeometry relative="1" as="geometry" />
        </mxCell>
        <mxCell id="y7Gk_75M8xc8uff-1NYp-14" value="Получает фабрику методом:&lt;br&gt;АОД_ПовторноеИспользование.ФабрикаXdtoИзXsd(Обработка.ПолучитьМакет(&quot;СхемаПакета&amp;nbsp;&quot;).ПолучитьТекст());" style="rounded=0;whiteSpace=wrap;html=1;" parent="1" vertex="1">
          <mxGeometry x="1050" y="430" width="690" height="80" as="geometry" />
        </mxCell>
        <mxCell id="y7Gk_75M8xc8uff-1NYp-15" style="edgeStyle=orthogonalEdgeStyle;rounded=0;orthogonalLoop=1;jettySize=auto;html=1;entryX=0;entryY=0.5;entryDx=0;entryDy=0;" parent="1" source="y7Gk_75M8xc8uff-1NYp-4" target="y7Gk_75M8xc8uff-1NYp-14" edge="1">
          <mxGeometry relative="1" as="geometry" />
        </mxCell>
        <mxCell id="y7Gk_75M8xc8uff-1NYp-19" style="edgeStyle=orthogonalEdgeStyle;rounded=0;orthogonalLoop=1;jettySize=auto;html=1;entryX=0.5;entryY=0;entryDx=0;entryDy=0;" parent="1" source="y7Gk_75M8xc8uff-1NYp-16" target="y7Gk_75M8xc8uff-1NYp-18" edge="1">
          <mxGeometry relative="1" as="geometry" />
        </mxCell>
        <mxCell id="wk4fpaiU79ZaXQ2rfXH2-2" style="edgeStyle=orthogonalEdgeStyle;shape=link;rounded=0;orthogonalLoop=1;jettySize=auto;html=1;entryX=0;entryY=0.5;entryDx=0;entryDy=0;" parent="1" source="y7Gk_75M8xc8uff-1NYp-16" target="wk4fpaiU79ZaXQ2rfXH2-1" edge="1">
          <mxGeometry relative="1" as="geometry" />
        </mxCell>
        <mxCell id="y7Gk_75M8xc8uff-1NYp-16" value="Получает основной тип пакета обмена методом:&lt;br&gt;ПространствоИменXSD = &quot;http://ws.toplogwms.ru/&quot;;&lt;br&gt;ЗагружаемыйТип = Фабрика.Тип(ПространствоИменXSD, Обработка.мИмяТипаДанныхОсновногоЭлемента);" style="rounded=0;whiteSpace=wrap;html=1;" parent="1" vertex="1">
          <mxGeometry x="1050" y="560" width="690" height="80" as="geometry" />
        </mxCell>
        <mxCell id="y7Gk_75M8xc8uff-1NYp-28" style="edgeStyle=orthogonalEdgeStyle;rounded=0;orthogonalLoop=1;jettySize=auto;html=1;entryX=0;entryY=0.5;entryDx=0;entryDy=0;shape=link;" parent="1" source="y7Gk_75M8xc8uff-1NYp-18" target="y7Gk_75M8xc8uff-1NYp-21" edge="1">
          <mxGeometry relative="1" as="geometry" />
        </mxCell>
        <mxCell id="y7Gk_75M8xc8uff-1NYp-18" value="Обходит ЗагружаемыйТип.Свойства. Выводит их в дерево значений. Помечает обязательные свойства" style="rounded=0;whiteSpace=wrap;html=1;" parent="1" vertex="1">
          <mxGeometry x="1050" y="825" width="690" height="80" as="geometry" />
        </mxCell>
        <mxCell id="y7Gk_75M8xc8uff-1NYp-21" value="Колонки дерева" style="swimlane;fontStyle=0;childLayout=stackLayout;horizontal=1;startSize=30;horizontalStack=0;resizeParent=1;resizeParentMax=0;resizeLast=0;collapsible=1;marginBottom=0;whiteSpace=wrap;html=1;" parent="1" vertex="1">
          <mxGeometry x="1790" y="730" width="240" height="270" as="geometry" />
        </mxCell>
        <mxCell id="y7Gk_75M8xc8uff-1NYp-22" value="ИмяСвойства (Строка)" style="text;strokeColor=none;fillColor=default;align=left;verticalAlign=middle;spacingLeft=4;spacingRight=4;overflow=hidden;points=[[0,0.5],[1,0.5]];portConstraint=eastwest;rotatable=0;whiteSpace=wrap;html=1;fillStyle=solid;" parent="y7Gk_75M8xc8uff-1NYp-21" vertex="1">
          <mxGeometry y="30" width="240" height="30" as="geometry" />
        </mxCell>
        <mxCell id="RFslvACWj9HFZrel2Pxm-1" value="ТипЗначения (ОписаниеТипов, не виден пользователю)" style="text;strokeColor=none;fillColor=default;align=left;verticalAlign=middle;spacingLeft=4;spacingRight=4;overflow=hidden;points=[[0,0.5],[1,0.5]];portConstraint=eastwest;rotatable=0;whiteSpace=wrap;html=1;fillStyle=solid;" parent="y7Gk_75M8xc8uff-1NYp-21" vertex="1">
          <mxGeometry y="60" width="240" height="30" as="geometry" />
        </mxCell>
        <mxCell id="RFslvACWj9HFZrel2Pxm-2" value="КомплексныйТип(Булево, не виден пользователю)" style="text;strokeColor=none;fillColor=default;align=left;verticalAlign=middle;spacingLeft=4;spacingRight=4;overflow=hidden;points=[[0,0.5],[1,0.5]];portConstraint=eastwest;rotatable=0;whiteSpace=wrap;html=1;fillStyle=solid;" parent="y7Gk_75M8xc8uff-1NYp-21" vertex="1">
          <mxGeometry y="90" width="240" height="30" as="geometry" />
        </mxCell>
        <mxCell id="x8HFeszoY0-sPkxacgWW-1" value="ПутьКРеквизиту(Строка, не виден пользователю)" style="text;strokeColor=default;fillColor=default;align=left;verticalAlign=middle;spacingLeft=4;spacingRight=4;overflow=hidden;points=[[0,0.5],[1,0.5]];portConstraint=eastwest;rotatable=0;whiteSpace=wrap;html=1;fillStyle=solid;" parent="y7Gk_75M8xc8uff-1NYp-21" vertex="1">
          <mxGeometry y="120" width="240" height="30" as="geometry" />
        </mxCell>
        <mxCell id="y7Gk_75M8xc8uff-1NYp-23" value="Обязательный (Булево)" style="text;strokeColor=none;fillColor=default;align=left;verticalAlign=middle;spacingLeft=4;spacingRight=4;overflow=hidden;points=[[0,0.5],[1,0.5]];portConstraint=eastwest;rotatable=0;whiteSpace=wrap;html=1;fillStyle=solid;" parent="y7Gk_75M8xc8uff-1NYp-21" vertex="1">
          <mxGeometry y="150" width="240" height="30" as="geometry" />
        </mxCell>
        <mxCell id="y7Gk_75M8xc8uff-1NYp-24" value="НомерКолонки (Число)" style="text;strokeColor=none;fillColor=default;align=left;verticalAlign=middle;spacingLeft=4;spacingRight=4;overflow=hidden;points=[[0,0.5],[1,0.5]];portConstraint=eastwest;rotatable=0;whiteSpace=wrap;html=1;fillStyle=solid;" parent="y7Gk_75M8xc8uff-1NYp-21" vertex="1">
          <mxGeometry y="180" width="240" height="30" as="geometry" />
        </mxCell>
        <mxCell id="y7Gk_75M8xc8uff-1NYp-26" value="ЗаполнятьЗначением (Булево)" style="text;strokeColor=none;fillColor=default;align=left;verticalAlign=middle;spacingLeft=4;spacingRight=4;overflow=hidden;points=[[0,0.5],[1,0.5]];portConstraint=eastwest;rotatable=0;whiteSpace=wrap;html=1;fillStyle=solid;" parent="y7Gk_75M8xc8uff-1NYp-21" vertex="1">
          <mxGeometry y="210" width="240" height="30" as="geometry" />
        </mxCell>
        <mxCell id="y7Gk_75M8xc8uff-1NYp-27" value="ЗаполняемоеЗначение (Строка)" style="text;strokeColor=none;fillColor=default;align=left;verticalAlign=middle;spacingLeft=4;spacingRight=4;overflow=hidden;points=[[0,0.5],[1,0.5]];portConstraint=eastwest;rotatable=0;whiteSpace=wrap;html=1;fillStyle=solid;" parent="y7Gk_75M8xc8uff-1NYp-21" vertex="1">
          <mxGeometry y="240" width="240" height="30" as="geometry" />
        </mxCell>
        <mxCell id="mV40h4osg0D_tRzQGiZj-2" style="edgeStyle=orthogonalEdgeStyle;rounded=0;orthogonalLoop=1;jettySize=auto;html=1;entryX=0;entryY=0.5;entryDx=0;entryDy=0;" parent="1" source="x8HFeszoY0-sPkxacgWW-1" target="mV40h4osg0D_tRzQGiZj-3" edge="1">
          <mxGeometry relative="1" as="geometry">
            <mxPoint x="2060" y="720" as="targetPoint" />
          </mxGeometry>
        </mxCell>
        <mxCell id="mV40h4osg0D_tRzQGiZj-3" value="&lt;span style=&quot;text-align: left;&quot;&gt;Имена колонок генерируем по полному пути к реквизиту. Вместо точки используем подчеркивание ( _ )&lt;/span&gt;" style="rounded=0;whiteSpace=wrap;html=1;fillStyle=solid;fillColor=default;" parent="1" vertex="1">
          <mxGeometry x="2090" y="835" width="190" height="60" as="geometry" />
        </mxCell>
        <mxCell id="wk4fpaiU79ZaXQ2rfXH2-1" value="Типы значений свойств комплексных типов могут быть получены методом:&lt;br&gt;ТипЗначения.Свойства.Получить(ИмяСвойства).Тип" style="rounded=0;whiteSpace=wrap;html=1;fillStyle=solid;strokeColor=default;fillColor=default;" parent="1" vertex="1">
          <mxGeometry x="1824" y="570" width="300" height="60" as="geometry" />
        </mxCell>
        <mxCell id="VlwOsn_wa1RrKDnm9oJW-3" value="Смотри &quot;Процесс загрузки\сохранения настроек&quot;" style="rounded=0;whiteSpace=wrap;html=1;fillColor=#dae8fc;strokeColor=#6c8ebf;" vertex="1" parent="1">
          <mxGeometry x="1050" y="1005" width="270" height="50" as="geometry" />
        </mxCell>
        <mxCell id="VlwOsn_wa1RrKDnm9oJW-4" style="edgeStyle=orthogonalEdgeStyle;rounded=0;orthogonalLoop=1;jettySize=auto;html=1;entryX=0;entryY=0.5;entryDx=0;entryDy=0;" edge="1" parent="1" source="S3SroFcMeXyD0w53rGOh-5" target="VlwOsn_wa1RrKDnm9oJW-3">
          <mxGeometry relative="1" as="geometry" />
        </mxCell>
      </root>
    </mxGraphModel>
  </diagram>
  <diagram id="dQMFJSewCHJYw5RyVWot" name="Процесс загрузки данных">
    <mxGraphModel dx="1550" dy="809" grid="1" gridSize="10" guides="1" tooltips="1" connect="1" arrows="1" fold="1" page="1" pageScale="1" pageWidth="827" pageHeight="1169" math="0" shadow="0">
      <root>
        <mxCell id="0" />
        <mxCell id="1" parent="0" />
        <mxCell id="QZzIuRFOFt2X9wSfgPc5-15" style="edgeStyle=orthogonalEdgeStyle;rounded=0;orthogonalLoop=1;jettySize=auto;html=1;entryX=0.5;entryY=0;entryDx=0;entryDy=0;" parent="1" source="QZzIuRFOFt2X9wSfgPc5-13" target="WiHU5fk8KxVnv-FbGB8p-1" edge="1">
          <mxGeometry relative="1" as="geometry">
            <mxPoint x="1080" y="280" as="targetPoint" />
          </mxGeometry>
        </mxCell>
        <mxCell id="QZzIuRFOFt2X9wSfgPc5-13" value="Собрать данные из Excel документа в эту таблицу значений" style="rounded=0;whiteSpace=wrap;html=1;" parent="1" vertex="1">
          <mxGeometry x="880" y="160" width="400" height="80" as="geometry" />
        </mxCell>
        <mxCell id="vRAgT10r9JUnITVil0TR-1" style="edgeStyle=orthogonalEdgeStyle;rounded=0;orthogonalLoop=1;jettySize=auto;html=1;shape=link;entryX=0.012;entryY=0.223;entryDx=0;entryDy=0;entryPerimeter=0;" parent="1" source="QZzIuRFOFt2X9wSfgPc5-16" target="vRAgT10r9JUnITVil0TR-2" edge="1">
          <mxGeometry relative="1" as="geometry">
            <mxPoint x="1370" y="80" as="targetPoint" />
          </mxGeometry>
        </mxCell>
        <mxCell id="vRAgT10r9JUnITVil0TR-6" style="edgeStyle=orthogonalEdgeStyle;rounded=0;orthogonalLoop=1;jettySize=auto;html=1;entryX=0.5;entryY=0;entryDx=0;entryDy=0;" parent="1" source="QZzIuRFOFt2X9wSfgPc5-16" target="QZzIuRFOFt2X9wSfgPc5-13" edge="1">
          <mxGeometry relative="1" as="geometry" />
        </mxCell>
        <mxCell id="QZzIuRFOFt2X9wSfgPc5-16" value="Получить таблицу для загрузки методом генерации колонок по настройке" style="rounded=0;whiteSpace=wrap;html=1;" parent="1" vertex="1">
          <mxGeometry x="880" y="40" width="400" height="60" as="geometry" />
        </mxCell>
        <mxCell id="vRAgT10r9JUnITVil0TR-2" value="Логика генерации" style="swimlane;fontStyle=0;childLayout=stackLayout;horizontal=1;startSize=30;horizontalStack=0;resizeParent=1;resizeParentMax=0;resizeLast=0;collapsible=1;marginBottom=0;whiteSpace=wrap;html=1;fillStyle=solid;fillColor=default;" parent="1" vertex="1">
          <mxGeometry x="1474" y="40" width="230" height="120" as="geometry" />
        </mxCell>
        <mxCell id="vRAgT10r9JUnITVil0TR-3" value="&lt;span style=&quot;text-align: center;&quot;&gt;Значения\номера колонок по пути реквизита&amp;nbsp; можем взять из структуры настройки&lt;/span&gt;" style="text;strokeColor=#6c8ebf;fillColor=#dae8fc;align=left;verticalAlign=middle;spacingLeft=4;spacingRight=4;overflow=hidden;points=[[0,0.5],[1,0.5]];portConstraint=eastwest;rotatable=0;whiteSpace=wrap;html=1;fillStyle=solid;" parent="vRAgT10r9JUnITVil0TR-2" vertex="1">
          <mxGeometry y="30" width="230" height="30" as="geometry" />
        </mxCell>
        <mxCell id="H1XK4S45D1wJCWPsQJqk-1" value="&lt;span style=&quot;text-align: center;&quot;&gt;Типы колонок берем из СтрокаДерева.ТипЗначения&lt;/span&gt;" style="text;strokeColor=none;fillColor=default;align=left;verticalAlign=middle;spacingLeft=4;spacingRight=4;overflow=hidden;points=[[0,0.5],[1,0.5]];portConstraint=eastwest;rotatable=0;whiteSpace=wrap;html=1;fillStyle=solid;" vertex="1" parent="vRAgT10r9JUnITVil0TR-2">
          <mxGeometry y="60" width="230" height="30" as="geometry" />
        </mxCell>
        <mxCell id="vRAgT10r9JUnITVil0TR-4" value="Имена колонок берем из СтрокаДерева.ПутьКРеквизиту" style="text;strokeColor=none;fillColor=default;align=left;verticalAlign=middle;spacingLeft=4;spacingRight=4;overflow=hidden;points=[[0,0.5],[1,0.5]];portConstraint=eastwest;rotatable=0;whiteSpace=wrap;html=1;fillStyle=solid;" parent="vRAgT10r9JUnITVil0TR-2" vertex="1">
          <mxGeometry y="90" width="230" height="30" as="geometry" />
        </mxCell>
        <mxCell id="-6BGW1NEtf8fnGRDYu24-2" style="edgeStyle=orthogonalEdgeStyle;rounded=0;orthogonalLoop=1;jettySize=auto;html=1;entryX=0.5;entryY=0;entryDx=0;entryDy=0;" parent="1" source="WiHU5fk8KxVnv-FbGB8p-1" target="-6BGW1NEtf8fnGRDYu24-1" edge="1">
          <mxGeometry relative="1" as="geometry" />
        </mxCell>
        <mxCell id="WiHU5fk8KxVnv-FbGB8p-1" value="Создать ОбъектXDTO пакета для загрузки методом:&lt;br&gt;Фабрика = АОД_ПовторноеИспользование.ФабрикаXdtoИзXsd(Обработка.ПолучитьМакет(&quot;СхемаПакета&amp;nbsp;&quot;).ПолучитьТекст());&lt;br&gt;ТипЗначения = Фабрика.Тип(ПространствоИмен,Обработка.мИмяТипаДанныхОсновногоЭлемента);&lt;br&gt;ОбъектXDTO =&amp;nbsp;Фабрика.Создать(ТипЗначения);" style="rounded=0;whiteSpace=wrap;html=1;fillStyle=solid;strokeColor=default;fillColor=default;" parent="1" vertex="1">
          <mxGeometry x="700" y="290" width="760" height="80" as="geometry" />
        </mxCell>
        <mxCell id="-6BGW1NEtf8fnGRDYu24-4" style="edgeStyle=orthogonalEdgeStyle;rounded=0;orthogonalLoop=1;jettySize=auto;html=1;entryX=0;entryY=0.5;entryDx=0;entryDy=0;shape=link;" parent="1" source="-6BGW1NEtf8fnGRDYu24-1" target="-6BGW1NEtf8fnGRDYu24-3" edge="1">
          <mxGeometry relative="1" as="geometry" />
        </mxCell>
        <mxCell id="G0JchAd-0O2vD9pbkxxm-2" style="edgeStyle=orthogonalEdgeStyle;rounded=0;orthogonalLoop=1;jettySize=auto;html=1;entryX=0.5;entryY=0;entryDx=0;entryDy=0;" parent="1" source="-6BGW1NEtf8fnGRDYu24-1" target="G0JchAd-0O2vD9pbkxxm-1" edge="1">
          <mxGeometry relative="1" as="geometry" />
        </mxCell>
        <mxCell id="-6BGW1NEtf8fnGRDYu24-1" value="Заполнить объект по настройке" style="rounded=0;whiteSpace=wrap;html=1;fillStyle=solid;strokeColor=default;fillColor=default;" parent="1" vertex="1">
          <mxGeometry x="880" y="440" width="400" height="60" as="geometry" />
        </mxCell>
        <mxCell id="-6BGW1NEtf8fnGRDYu24-3" value="Типы значений свойств комплексных типов могут быть получены методом:&lt;br&gt;ТипЗначения.Свойства.Получить(ИмяСвойства).Тип" style="rounded=0;whiteSpace=wrap;html=1;fillStyle=solid;strokeColor=default;fillColor=default;" parent="1" vertex="1">
          <mxGeometry x="1354" y="440" width="300" height="60" as="geometry" />
        </mxCell>
        <mxCell id="G0JchAd-0O2vD9pbkxxm-4" style="edgeStyle=orthogonalEdgeStyle;rounded=0;orthogonalLoop=1;jettySize=auto;html=1;entryX=0.5;entryY=0;entryDx=0;entryDy=0;" parent="1" source="G0JchAd-0O2vD9pbkxxm-1" target="G0JchAd-0O2vD9pbkxxm-3" edge="1">
          <mxGeometry relative="1" as="geometry" />
        </mxCell>
        <mxCell id="KUSYqFiIuXwIHpvC_2n9-3" style="edgeStyle=orthogonalEdgeStyle;rounded=0;orthogonalLoop=1;jettySize=auto;html=1;entryX=0;entryY=0.5;entryDx=0;entryDy=0;shape=link;exitX=1;exitY=0.25;exitDx=0;exitDy=0;" parent="1" source="G0JchAd-0O2vD9pbkxxm-1" target="KUSYqFiIuXwIHpvC_2n9-2" edge="1">
          <mxGeometry relative="1" as="geometry" />
        </mxCell>
        <mxCell id="KUSYqFiIuXwIHpvC_2n9-15" style="edgeStyle=orthogonalEdgeStyle;rounded=0;orthogonalLoop=1;jettySize=auto;html=1;entryX=0;entryY=0.5;entryDx=0;entryDy=0;shape=link;exitX=0.999;exitY=0.789;exitDx=0;exitDy=0;exitPerimeter=0;" parent="1" source="G0JchAd-0O2vD9pbkxxm-1" target="KUSYqFiIuXwIHpvC_2n9-14" edge="1">
          <mxGeometry relative="1" as="geometry">
            <mxPoint x="1380" y="660" as="sourcePoint" />
          </mxGeometry>
        </mxCell>
        <mxCell id="G0JchAd-0O2vD9pbkxxm-1" value="Сохранить объект, соответственно, в XML / JSON в переменную ТекстПакета.&lt;br&gt;закодировать в base64 строку методом: &lt;br&gt;ДанныеПакетаBase64 = ПолучитьBase64СтрокуИзДвоичныхДанных(ДвоичныеДанные(ТекстПакета))&lt;br&gt;&lt;br&gt;Сгенерировать обёртку методом:&lt;br&gt;ТипЗначенияЗапроса =&amp;nbsp;ФабрикаXDTO.Тип(&quot;http://ade.project&quot;, &quot;Message&quot;);&lt;br&gt;ОбъектЗапроса = ФабрикаXDTO.Создать(ТипЗначенияЗапроса);&lt;br&gt;&amp;nbsp;&lt;br&gt;Заполнить обёртку:&lt;br&gt;В ОбъектЗапроса.MsgData присвоить ДанныеПакетаBase64&lt;br&gt;В ОбъектЗапроса.Sender заполнить данные отправителя (из отправителя, заполненного в настройках)&lt;br&gt;В ОбъектЗапроса.Receiver заполнить данные получателя (из получателя, заполненного в настройках)&lt;br&gt;ОбъектЗапроса.MsgID = Строка(Новый УникальныйИдентификатор)&lt;br&gt;ОбъектЗапроса.MsgType = ТипСообщения.Код&lt;br&gt;ОбъектЗапроса.ExtDate = ТекущаяДатаСеанса()" style="rounded=0;whiteSpace=wrap;html=1;fillStyle=solid;strokeColor=default;fillColor=default;" parent="1" vertex="1">
          <mxGeometry x="782.5" y="550" width="595" height="240" as="geometry" />
        </mxCell>
        <mxCell id="KUSYqFiIuXwIHpvC_2n9-13" style="edgeStyle=orthogonalEdgeStyle;rounded=0;orthogonalLoop=1;jettySize=auto;html=1;entryX=0.5;entryY=0;entryDx=0;entryDy=0;entryPerimeter=0;" parent="1" source="G0JchAd-0O2vD9pbkxxm-3" target="KUSYqFiIuXwIHpvC_2n9-5" edge="1">
          <mxGeometry relative="1" as="geometry" />
        </mxCell>
        <mxCell id="G0JchAd-0O2vD9pbkxxm-3" value="Выполнить загрузку пакета обмена, заключенного в обёртку, методом:&lt;br&gt;Справочники.ПакетыОбменаАОД.ВыполнитьЗагрузкуПакета(request, ФорматПакета);" style="rounded=0;whiteSpace=wrap;html=1;fillStyle=solid;strokeColor=default;fillColor=default;" parent="1" vertex="1">
          <mxGeometry x="825" y="860" width="510" height="80" as="geometry" />
        </mxCell>
        <mxCell id="KUSYqFiIuXwIHpvC_2n9-2" value="Взять из УчастникОбмена.ФорматСообщенийАОД" style="rounded=0;whiteSpace=wrap;html=1;fillStyle=solid;strokeColor=default;fillColor=default;" parent="1" vertex="1">
          <mxGeometry x="1430" y="570" width="274" height="80" as="geometry" />
        </mxCell>
        <mxCell id="KUSYqFiIuXwIHpvC_2n9-6" style="edgeStyle=orthogonalEdgeStyle;rounded=0;orthogonalLoop=1;jettySize=auto;html=1;entryX=0.5;entryY=0;entryDx=0;entryDy=0;" parent="1" source="KUSYqFiIuXwIHpvC_2n9-5" target="KUSYqFiIuXwIHpvC_2n9-9" edge="1">
          <mxGeometry relative="1" as="geometry">
            <mxPoint x="1240" y="1100" as="targetPoint" />
          </mxGeometry>
        </mxCell>
        <mxCell id="KUSYqFiIuXwIHpvC_2n9-7" style="edgeStyle=orthogonalEdgeStyle;rounded=0;orthogonalLoop=1;jettySize=auto;html=1;entryX=0.5;entryY=0;entryDx=0;entryDy=0;" parent="1" source="KUSYqFiIuXwIHpvC_2n9-5" target="KUSYqFiIuXwIHpvC_2n9-8" edge="1">
          <mxGeometry relative="1" as="geometry">
            <mxPoint x="960" y="1100" as="targetPoint" />
          </mxGeometry>
        </mxCell>
        <mxCell id="KUSYqFiIuXwIHpvC_2n9-5" value="Возникли ошибки?" style="points=[[0.25,0.25,0],[0.5,0,0],[0.75,0.25,0],[1,0.5,0],[0.75,0.75,0],[0.5,1,0],[0.25,0.75,0],[0,0.5,0]];shape=mxgraph.bpmn.gateway2;html=1;verticalLabelPosition=bottom;labelBackgroundColor=#ffffff;verticalAlign=top;align=center;perimeter=rhombusPerimeter;outlineConnect=0;outline=none;symbol=none;fillStyle=solid;strokeColor=default;fillColor=default;" parent="1" vertex="1">
          <mxGeometry x="1055" y="980" width="50" height="50" as="geometry" />
        </mxCell>
        <mxCell id="KUSYqFiIuXwIHpvC_2n9-11" style="edgeStyle=orthogonalEdgeStyle;rounded=0;orthogonalLoop=1;jettySize=auto;html=1;entryX=0.5;entryY=0;entryDx=0;entryDy=0;entryPerimeter=0;exitX=0.5;exitY=1;exitDx=0;exitDy=0;" parent="1" source="KUSYqFiIuXwIHpvC_2n9-8" target="KUSYqFiIuXwIHpvC_2n9-10" edge="1">
          <mxGeometry relative="1" as="geometry" />
        </mxCell>
        <mxCell id="KUSYqFiIuXwIHpvC_2n9-8" value="Вывести ошибки" style="rounded=0;whiteSpace=wrap;html=1;fillStyle=solid;strokeColor=default;fillColor=default;" parent="1" vertex="1">
          <mxGeometry x="900" y="1100" width="120" height="60" as="geometry" />
        </mxCell>
        <mxCell id="KUSYqFiIuXwIHpvC_2n9-12" style="edgeStyle=orthogonalEdgeStyle;rounded=0;orthogonalLoop=1;jettySize=auto;html=1;exitX=0.5;exitY=1;exitDx=0;exitDy=0;" parent="1" source="KUSYqFiIuXwIHpvC_2n9-9" target="KUSYqFiIuXwIHpvC_2n9-10" edge="1">
          <mxGeometry relative="1" as="geometry" />
        </mxCell>
        <mxCell id="KUSYqFiIuXwIHpvC_2n9-9" value="Вывести сообщение об успешной загрузке" style="rounded=0;whiteSpace=wrap;html=1;fillStyle=solid;strokeColor=default;fillColor=default;" parent="1" vertex="1">
          <mxGeometry x="1130" y="1100" width="120" height="60" as="geometry" />
        </mxCell>
        <mxCell id="KUSYqFiIuXwIHpvC_2n9-10" value="Конец процесса" style="points=[[0.145,0.145,0],[0.5,0,0],[0.855,0.145,0],[1,0.5,0],[0.855,0.855,0],[0.5,1,0],[0.145,0.855,0],[0,0.5,0]];shape=mxgraph.bpmn.event;html=1;verticalLabelPosition=bottom;labelBackgroundColor=#ffffff;verticalAlign=top;align=center;perimeter=ellipsePerimeter;outlineConnect=0;aspect=fixed;outline=end;symbol=terminate;fillStyle=solid;strokeColor=default;fillColor=default;" parent="1" vertex="1">
          <mxGeometry x="1055" y="1270" width="50" height="50" as="geometry" />
        </mxCell>
        <mxCell id="KUSYqFiIuXwIHpvC_2n9-14" value="Здесь ФабрикаXDTO - глобальная системная переменная платформы!" style="rounded=0;whiteSpace=wrap;html=1;fillStyle=solid;strokeColor=#b85450;fillColor=#f8cecc;" parent="1" vertex="1">
          <mxGeometry x="1430" y="720" width="280" height="40" as="geometry" />
        </mxCell>
        <mxCell id="H1XK4S45D1wJCWPsQJqk-3" style="edgeStyle=orthogonalEdgeStyle;rounded=0;orthogonalLoop=1;jettySize=auto;html=1;entryX=0;entryY=0.5;entryDx=0;entryDy=0;" edge="1" parent="1" source="vRAgT10r9JUnITVil0TR-3" target="mARlDAfW1FnXdlI_XDdb-1">
          <mxGeometry relative="1" as="geometry">
            <mxPoint x="1870" y="85" as="targetPoint" />
          </mxGeometry>
        </mxCell>
        <mxCell id="mARlDAfW1FnXdlI_XDdb-1" value="Смотри &quot;Процесс загрузки\сохранения настроек&quot;" style="rounded=0;whiteSpace=wrap;html=1;fillColor=#dae8fc;strokeColor=#6c8ebf;" vertex="1" parent="1">
          <mxGeometry x="1770" y="60" width="270" height="50" as="geometry" />
        </mxCell>
      </root>
    </mxGraphModel>
  </diagram>
  <diagram id="R2gHY1J0C8QxkPxYh6oi" name="Процесс загрузки сохранения настроек">
    <mxGraphModel dx="1938" dy="1011" grid="1" gridSize="10" guides="1" tooltips="1" connect="1" arrows="1" fold="1" page="1" pageScale="1" pageWidth="827" pageHeight="1169" math="0" shadow="0">
      <root>
        <mxCell id="0" />
        <mxCell id="1" parent="0" />
        <mxCell id="mBErDJl3q9_SzB6X_wsp-1" value="Pool" style="swimlane;html=1;childLayout=stackLayout;resizeParent=1;resizeParentMax=0;startSize=20;horizontal=0;horizontalStack=1;whiteSpace=wrap;" vertex="1" parent="1">
          <mxGeometry x="40" y="40" width="940" height="1260" as="geometry" />
        </mxCell>
        <mxCell id="mBErDJl3q9_SzB6X_wsp-2" value="Пользователь" style="swimlane;html=1;startSize=20;" vertex="1" parent="mBErDJl3q9_SzB6X_wsp-1">
          <mxGeometry x="20" width="470" height="1260" as="geometry" />
        </mxCell>
        <mxCell id="E0q1EyfAChVF5Pu8b_Gd-5" value="" style="edgeStyle=orthogonalEdgeStyle;rounded=0;orthogonalLoop=1;jettySize=auto;html=1;exitX=0.5;exitY=1;exitDx=0;exitDy=0;exitPerimeter=0;entryX=0.5;entryY=0;entryDx=0;entryDy=0;entryPerimeter=0;" edge="1" parent="mBErDJl3q9_SzB6X_wsp-2" source="vQZgUbJSXHMJpGdpVjaz-4" target="vQZgUbJSXHMJpGdpVjaz-5">
          <mxGeometry relative="1" as="geometry">
            <mxPoint x="200" y="840" as="sourcePoint" />
            <mxPoint x="180" y="830" as="targetPoint" />
          </mxGeometry>
        </mxCell>
        <mxCell id="E0q1EyfAChVF5Pu8b_Gd-1" value="Конец процесса" style="points=[[0.145,0.145,0],[0.5,0,0],[0.855,0.145,0],[1,0.5,0],[0.855,0.855,0],[0.5,1,0],[0.145,0.855,0],[0,0.5,0]];shape=mxgraph.bpmn.event;html=1;verticalLabelPosition=bottom;labelBackgroundColor=#ffffff;verticalAlign=top;align=center;perimeter=ellipsePerimeter;outlineConnect=0;aspect=fixed;outline=end;symbol=terminate;fillStyle=solid;strokeColor=default;fillColor=default;" vertex="1" parent="mBErDJl3q9_SzB6X_wsp-2">
          <mxGeometry x="80" y="1170" width="50" height="50" as="geometry" />
        </mxCell>
        <mxCell id="vQZgUbJSXHMJpGdpVjaz-1" value="&lt;span style=&quot;background-color: rgb(248, 249, 250);&quot;&gt;Открываем обработку&lt;/span&gt;" style="points=[[0.145,0.145,0],[0.5,0,0],[0.855,0.145,0],[1,0.5,0],[0.855,0.855,0],[0.5,1,0],[0.145,0.855,0],[0,0.5,0]];shape=mxgraph.bpmn.event;html=1;verticalLabelPosition=bottom;labelBackgroundColor=#ffffff;verticalAlign=top;align=center;perimeter=ellipsePerimeter;outlineConnect=0;aspect=fixed;outline=standard;symbol=general;" vertex="1" parent="mBErDJl3q9_SzB6X_wsp-2">
          <mxGeometry x="80" y="50" width="50" height="50" as="geometry" />
        </mxCell>
        <mxCell id="vQZgUbJSXHMJpGdpVjaz-3" value="&lt;span style=&quot;background-color: rgb(248, 249, 250);&quot;&gt;Открываем настройку из списка&lt;/span&gt;" style="points=[[0.145,0.145,0],[0.5,0,0],[0.855,0.145,0],[1,0.5,0],[0.855,0.855,0],[0.5,1,0],[0.145,0.855,0],[0,0.5,0]];shape=mxgraph.bpmn.event;html=1;verticalLabelPosition=bottom;labelBackgroundColor=#ffffff;verticalAlign=top;align=center;perimeter=ellipsePerimeter;outlineConnect=0;aspect=fixed;outline=standard;symbol=general;" vertex="1" parent="mBErDJl3q9_SzB6X_wsp-2">
          <mxGeometry x="80" y="220" width="50" height="50" as="geometry" />
        </mxCell>
        <mxCell id="vQZgUbJSXHMJpGdpVjaz-4" value="&lt;span style=&quot;background-color: rgb(248, 249, 250);&quot;&gt;Редактируем настройку&lt;/span&gt;" style="points=[[0.145,0.145,0],[0.5,0,0],[0.855,0.145,0],[1,0.5,0],[0.855,0.855,0],[0.5,1,0],[0.145,0.855,0],[0,0.5,0]];shape=mxgraph.bpmn.event;html=1;verticalLabelPosition=bottom;labelBackgroundColor=#ffffff;verticalAlign=top;align=center;perimeter=ellipsePerimeter;outlineConnect=0;aspect=fixed;outline=standard;symbol=general;" vertex="1" parent="mBErDJl3q9_SzB6X_wsp-2">
          <mxGeometry x="80" y="730" width="50" height="50" as="geometry" />
        </mxCell>
        <mxCell id="vQZgUbJSXHMJpGdpVjaz-5" value="&lt;span style=&quot;background-color: rgb(248, 249, 250);&quot;&gt;Сохраняем настройку&lt;/span&gt;" style="points=[[0.145,0.145,0],[0.5,0,0],[0.855,0.145,0],[1,0.5,0],[0.855,0.855,0],[0.5,1,0],[0.145,0.855,0],[0,0.5,0]];shape=mxgraph.bpmn.event;html=1;verticalLabelPosition=bottom;labelBackgroundColor=#ffffff;verticalAlign=top;align=center;perimeter=ellipsePerimeter;outlineConnect=0;aspect=fixed;outline=standard;symbol=general;" vertex="1" parent="mBErDJl3q9_SzB6X_wsp-2">
          <mxGeometry x="80" y="870" width="50" height="50" as="geometry" />
        </mxCell>
        <mxCell id="mBErDJl3q9_SzB6X_wsp-8" value="Система" style="swimlane;html=1;startSize=20;" vertex="1" parent="mBErDJl3q9_SzB6X_wsp-1">
          <mxGeometry x="490" width="450" height="1260" as="geometry" />
        </mxCell>
        <mxCell id="dgqfv0P35WhOVl7wmSZD-1" value="В список выбора реквизита формы из регистра сведений &quot;СохраненныеНастройки&quot; загружаем все наименования настроек" style="points=[[0.25,0,0],[0.5,0,0],[0.75,0,0],[1,0.25,0],[1,0.5,0],[1,0.75,0],[0.75,1,0],[0.5,1,0],[0.25,1,0],[0,0.75,0],[0,0.5,0],[0,0.25,0]];shape=mxgraph.bpmn.task;whiteSpace=wrap;rectStyle=rounded;size=10;html=1;taskMarker=abstract;" vertex="1" parent="mBErDJl3q9_SzB6X_wsp-8">
          <mxGeometry x="40" y="100" width="330" height="80" as="geometry" />
        </mxCell>
        <mxCell id="iTJuOv5xwbl-qBqxSan9-2" value="" style="edgeStyle=orthogonalEdgeStyle;rounded=0;orthogonalLoop=1;jettySize=auto;html=1;entryX=0.5;entryY=0;entryDx=0;entryDy=0;entryPerimeter=0;" edge="1" parent="mBErDJl3q9_SzB6X_wsp-8" source="mv85skjzBKuYCzuxdRrD-11" target="OQL_suA56nYils8SqRmL-1">
          <mxGeometry relative="1" as="geometry" />
        </mxCell>
        <mxCell id="mv85skjzBKuYCzuxdRrD-11" value="Загружаем хранилище значений выбранной настройки по наименованию.&amp;nbsp;" style="points=[[0.25,0,0],[0.5,0,0],[0.75,0,0],[1,0.25,0],[1,0.5,0],[1,0.75,0],[0.75,1,0],[0.5,1,0],[0.25,1,0],[0,0.75,0],[0,0.5,0],[0,0.25,0]];shape=mxgraph.bpmn.task;whiteSpace=wrap;rectStyle=rounded;size=10;html=1;taskMarker=abstract;" vertex="1" parent="mBErDJl3q9_SzB6X_wsp-8">
          <mxGeometry x="40" y="340" width="330" height="40" as="geometry" />
        </mxCell>
        <mxCell id="iTJuOv5xwbl-qBqxSan9-1" value="В дерево сопоставляем данные по &quot;ПолныйПутьЭлемента&quot;&lt;br&gt;&lt;br&gt;Таким образом, если в пакете xsd появится новый элемент или удалится имеющийся - это не повлияет на загрузку и сохранение&lt;br&gt;" style="points=[[0.25,0,0],[0.5,0,0],[0.75,0,0],[1,0.25,0],[1,0.5,0],[1,0.75,0],[0.75,1,0],[0.5,1,0],[0.25,1,0],[0,0.75,0],[0,0.5,0],[0,0.25,0]];shape=mxgraph.bpmn.task;whiteSpace=wrap;rectStyle=rounded;size=10;html=1;taskMarker=abstract;" vertex="1" parent="mBErDJl3q9_SzB6X_wsp-8">
          <mxGeometry x="40" y="520" width="330" height="110" as="geometry" />
        </mxCell>
        <mxCell id="OQL_suA56nYils8SqRmL-2" style="edgeStyle=orthogonalEdgeStyle;rounded=0;orthogonalLoop=1;jettySize=auto;html=1;exitX=0.5;exitY=1;exitDx=0;exitDy=0;exitPerimeter=0;" edge="1" parent="mBErDJl3q9_SzB6X_wsp-8" source="OQL_suA56nYils8SqRmL-1" target="iTJuOv5xwbl-qBqxSan9-1">
          <mxGeometry relative="1" as="geometry" />
        </mxCell>
        <mxCell id="OQL_suA56nYils8SqRmL-1" value="Выполняет чтение схемы пакета из макета обработки с именем&amp;nbsp;СхемаПакета (xsd)" style="points=[[0.25,0,0],[0.5,0,0],[0.75,0,0],[1,0.25,0],[1,0.5,0],[1,0.75,0],[0.75,1,0],[0.5,1,0],[0.25,1,0],[0,0.75,0],[0,0.5,0],[0,0.25,0]];shape=mxgraph.bpmn.task;whiteSpace=wrap;rectStyle=rounded;size=10;html=1;taskMarker=abstract;" vertex="1" parent="mBErDJl3q9_SzB6X_wsp-8">
          <mxGeometry x="80" y="420" width="250" height="50" as="geometry" />
        </mxCell>
        <mxCell id="zM6WNufwg0qLV-KV7xnP-7" value="" style="edgeStyle=orthogonalEdgeStyle;rounded=0;orthogonalLoop=1;jettySize=auto;html=1;" edge="1" parent="mBErDJl3q9_SzB6X_wsp-8" source="zM6WNufwg0qLV-KV7xnP-2" target="zM6WNufwg0qLV-KV7xnP-6">
          <mxGeometry relative="1" as="geometry" />
        </mxCell>
        <mxCell id="zM6WNufwg0qLV-KV7xnP-2" value="Собираем структуру&amp;nbsp;" style="points=[[0.25,0,0],[0.5,0,0],[0.75,0,0],[1,0.25,0],[1,0.5,0],[1,0.75,0],[0.75,1,0],[0.5,1,0],[0.25,1,0],[0,0.75,0],[0,0.5,0],[0,0.25,0]];shape=mxgraph.bpmn.task;whiteSpace=wrap;rectStyle=rounded;size=10;html=1;taskMarker=abstract;" vertex="1" parent="mBErDJl3q9_SzB6X_wsp-8">
          <mxGeometry x="40" y="990" width="330" height="40" as="geometry" />
        </mxCell>
        <mxCell id="zM6WNufwg0qLV-KV7xnP-6" value="Сохраняем структуру в регистр сведений&lt;br&gt;&quot;СохраненныеНастройки&quot;" style="points=[[0.25,0,0],[0.5,0,0],[0.75,0,0],[1,0.25,0],[1,0.5,0],[1,0.75,0],[0.75,1,0],[0.5,1,0],[0.25,1,0],[0,0.75,0],[0,0.5,0],[0,0.25,0]];shape=mxgraph.bpmn.task;whiteSpace=wrap;rectStyle=rounded;size=10;html=1;taskMarker=abstract;" vertex="1" parent="mBErDJl3q9_SzB6X_wsp-8">
          <mxGeometry x="40" y="1070" width="330" height="40" as="geometry" />
        </mxCell>
        <mxCell id="dgqfv0P35WhOVl7wmSZD-2" style="edgeStyle=orthogonalEdgeStyle;rounded=0;orthogonalLoop=1;jettySize=auto;html=1;entryX=0.5;entryY=0;entryDx=0;entryDy=0;entryPerimeter=0;exitX=1;exitY=0.5;exitDx=0;exitDy=0;exitPerimeter=0;" edge="1" parent="mBErDJl3q9_SzB6X_wsp-1" source="vQZgUbJSXHMJpGdpVjaz-1" target="dgqfv0P35WhOVl7wmSZD-1">
          <mxGeometry relative="1" as="geometry">
            <mxPoint x="173.7499999999941" y="70" as="sourcePoint" />
          </mxGeometry>
        </mxCell>
        <mxCell id="mv85skjzBKuYCzuxdRrD-6" value="" style="edgeStyle=orthogonalEdgeStyle;rounded=0;orthogonalLoop=1;jettySize=auto;html=1;exitX=0.5;exitY=1;exitDx=0;exitDy=0;exitPerimeter=0;entryX=0.5;entryY=0;entryDx=0;entryDy=0;entryPerimeter=0;" edge="1" parent="mBErDJl3q9_SzB6X_wsp-1" source="dgqfv0P35WhOVl7wmSZD-1" target="vQZgUbJSXHMJpGdpVjaz-3">
          <mxGeometry relative="1" as="geometry">
            <mxPoint x="125" y="220.00000000000023" as="targetPoint" />
          </mxGeometry>
        </mxCell>
        <mxCell id="mv85skjzBKuYCzuxdRrD-10" value="" style="edgeStyle=orthogonalEdgeStyle;rounded=0;orthogonalLoop=1;jettySize=auto;html=1;entryX=0.5;entryY=0;entryDx=0;entryDy=0;entryPerimeter=0;exitX=0.5;exitY=1;exitDx=0;exitDy=0;exitPerimeter=0;" edge="1" parent="mBErDJl3q9_SzB6X_wsp-1" source="vQZgUbJSXHMJpGdpVjaz-3" target="mv85skjzBKuYCzuxdRrD-11">
          <mxGeometry relative="1" as="geometry">
            <mxPoint x="173.75" y="249.99999999999977" as="sourcePoint" />
            <mxPoint x="646.25" y="350" as="targetPoint" />
          </mxGeometry>
        </mxCell>
        <mxCell id="OQL_suA56nYils8SqRmL-3" style="edgeStyle=orthogonalEdgeStyle;rounded=0;orthogonalLoop=1;jettySize=auto;html=1;exitX=0.5;exitY=1;exitDx=0;exitDy=0;exitPerimeter=0;entryX=0.5;entryY=0;entryDx=0;entryDy=0;entryPerimeter=0;" edge="1" parent="mBErDJl3q9_SzB6X_wsp-1" source="iTJuOv5xwbl-qBqxSan9-1" target="vQZgUbJSXHMJpGdpVjaz-4">
          <mxGeometry relative="1" as="geometry">
            <mxPoint x="190" y="700" as="targetPoint" />
          </mxGeometry>
        </mxCell>
        <mxCell id="zM6WNufwg0qLV-KV7xnP-5" style="edgeStyle=orthogonalEdgeStyle;rounded=0;orthogonalLoop=1;jettySize=auto;html=1;exitX=0.5;exitY=1;exitDx=0;exitDy=0;exitPerimeter=0;" edge="1" parent="mBErDJl3q9_SzB6X_wsp-1" source="vQZgUbJSXHMJpGdpVjaz-5" target="zM6WNufwg0qLV-KV7xnP-2">
          <mxGeometry relative="1" as="geometry">
            <mxPoint x="125" y="1000" as="sourcePoint" />
          </mxGeometry>
        </mxCell>
        <mxCell id="zM6WNufwg0qLV-KV7xnP-8" style="edgeStyle=orthogonalEdgeStyle;rounded=0;orthogonalLoop=1;jettySize=auto;html=1;entryX=0.5;entryY=0;entryDx=0;entryDy=0;entryPerimeter=0;exitX=0.5;exitY=1;exitDx=0;exitDy=0;exitPerimeter=0;" edge="1" parent="mBErDJl3q9_SzB6X_wsp-1" source="zM6WNufwg0qLV-KV7xnP-6" target="E0q1EyfAChVF5Pu8b_Gd-1">
          <mxGeometry relative="1" as="geometry" />
        </mxCell>
        <mxCell id="pa9A-_I2fMbXmD6w_S37-2" value="" style="edgeStyle=orthogonalEdgeStyle;rounded=0;orthogonalLoop=1;jettySize=auto;html=1;shape=link;entryX=0.5;entryY=0;entryDx=0;entryDy=0;" edge="1" parent="1" source="iTJuOv5xwbl-qBqxSan9-1" target="6l1XWt_ba81r55_pZD9l-1">
          <mxGeometry relative="1" as="geometry">
            <mxPoint x="1400.0000000000005" y="470" as="targetPoint" />
          </mxGeometry>
        </mxCell>
        <mxCell id="6l1XWt_ba81r55_pZD9l-1" value="Реквизиты структуры" style="swimlane;fontStyle=0;childLayout=stackLayout;horizontal=1;startSize=30;horizontalStack=0;resizeParent=1;resizeParentMax=0;resizeLast=0;collapsible=1;marginBottom=0;whiteSpace=wrap;html=1;" vertex="1" parent="1">
          <mxGeometry x="1010" y="770" width="240" height="150" as="geometry" />
        </mxCell>
        <mxCell id="6l1XWt_ba81r55_pZD9l-2" value="&lt;span style=&quot;text-align: center;&quot;&gt;Тип сообщения&lt;/span&gt;" style="text;strokeColor=none;fillColor=default;align=left;verticalAlign=middle;spacingLeft=4;spacingRight=4;overflow=hidden;points=[[0,0.5],[1,0.5]];portConstraint=eastwest;rotatable=0;whiteSpace=wrap;html=1;fillStyle=solid;" vertex="1" parent="6l1XWt_ba81r55_pZD9l-1">
          <mxGeometry y="30" width="240" height="30" as="geometry" />
        </mxCell>
        <mxCell id="6l1XWt_ba81r55_pZD9l-3" value="&lt;span style=&quot;text-align: center;&quot;&gt;Отправитель данных&lt;/span&gt;" style="text;strokeColor=none;fillColor=default;align=left;verticalAlign=middle;spacingLeft=4;spacingRight=4;overflow=hidden;points=[[0,0.5],[1,0.5]];portConstraint=eastwest;rotatable=0;whiteSpace=wrap;html=1;fillStyle=solid;" vertex="1" parent="6l1XWt_ba81r55_pZD9l-1">
          <mxGeometry y="60" width="240" height="30" as="geometry" />
        </mxCell>
        <mxCell id="6l1XWt_ba81r55_pZD9l-4" value="&lt;span style=&quot;text-align: center;&quot;&gt;Получатель данных&lt;/span&gt;" style="text;strokeColor=none;fillColor=default;align=left;verticalAlign=middle;spacingLeft=4;spacingRight=4;overflow=hidden;points=[[0,0.5],[1,0.5]];portConstraint=eastwest;rotatable=0;whiteSpace=wrap;html=1;fillStyle=solid;" vertex="1" parent="6l1XWt_ba81r55_pZD9l-1">
          <mxGeometry y="90" width="240" height="30" as="geometry" />
        </mxCell>
        <mxCell id="6l1XWt_ba81r55_pZD9l-5" value="&lt;span style=&quot;text-align: center;&quot;&gt;Таблица значений настройки&lt;/span&gt;" style="text;strokeColor=default;fillColor=default;align=left;verticalAlign=middle;spacingLeft=4;spacingRight=4;overflow=hidden;points=[[0,0.5],[1,0.5]];portConstraint=eastwest;rotatable=0;whiteSpace=wrap;html=1;fillStyle=solid;" vertex="1" parent="6l1XWt_ba81r55_pZD9l-1">
          <mxGeometry y="120" width="240" height="30" as="geometry" />
        </mxCell>
        <mxCell id="6l1XWt_ba81r55_pZD9l-11" value="Колонки таблицы" style="swimlane;fontStyle=0;childLayout=stackLayout;horizontal=1;startSize=30;horizontalStack=0;resizeParent=1;resizeParentMax=0;resizeLast=0;collapsible=1;marginBottom=0;whiteSpace=wrap;html=1;" vertex="1" parent="1">
          <mxGeometry x="1320" y="930" width="240" height="150" as="geometry" />
        </mxCell>
        <mxCell id="6l1XWt_ba81r55_pZD9l-12" value="&lt;span style=&quot;text-align: center;&quot;&gt;ПолныйПутьЭлемента&lt;/span&gt;" style="text;strokeColor=none;fillColor=default;align=left;verticalAlign=middle;spacingLeft=4;spacingRight=4;overflow=hidden;points=[[0,0.5],[1,0.5]];portConstraint=eastwest;rotatable=0;whiteSpace=wrap;html=1;fillStyle=solid;" vertex="1" parent="6l1XWt_ba81r55_pZD9l-11">
          <mxGeometry y="30" width="240" height="30" as="geometry" />
        </mxCell>
        <mxCell id="6l1XWt_ba81r55_pZD9l-13" value="&lt;span style=&quot;text-align: center;&quot;&gt;НомерКолонки&lt;/span&gt;" style="text;strokeColor=none;fillColor=default;align=left;verticalAlign=middle;spacingLeft=4;spacingRight=4;overflow=hidden;points=[[0,0.5],[1,0.5]];portConstraint=eastwest;rotatable=0;whiteSpace=wrap;html=1;fillStyle=solid;" vertex="1" parent="6l1XWt_ba81r55_pZD9l-11">
          <mxGeometry y="60" width="240" height="30" as="geometry" />
        </mxCell>
        <mxCell id="6l1XWt_ba81r55_pZD9l-14" value="&lt;span style=&quot;text-align: center;&quot;&gt;ЗаполнятьЗначением&lt;/span&gt;" style="text;strokeColor=none;fillColor=default;align=left;verticalAlign=middle;spacingLeft=4;spacingRight=4;overflow=hidden;points=[[0,0.5],[1,0.5]];portConstraint=eastwest;rotatable=0;whiteSpace=wrap;html=1;fillStyle=solid;" vertex="1" parent="6l1XWt_ba81r55_pZD9l-11">
          <mxGeometry y="90" width="240" height="30" as="geometry" />
        </mxCell>
        <mxCell id="6l1XWt_ba81r55_pZD9l-15" value="ЗаполняемоеЗначение&amp;nbsp;" style="text;strokeColor=none;fillColor=default;align=left;verticalAlign=middle;spacingLeft=4;spacingRight=4;overflow=hidden;points=[[0,0.5],[1,0.5]];portConstraint=eastwest;rotatable=0;whiteSpace=wrap;html=1;fillStyle=solid;" vertex="1" parent="6l1XWt_ba81r55_pZD9l-11">
          <mxGeometry y="120" width="240" height="30" as="geometry" />
        </mxCell>
        <mxCell id="5k2vpJ8Vauh1TMz-2nXc-1" style="edgeStyle=orthogonalEdgeStyle;shape=link;rounded=0;orthogonalLoop=1;jettySize=auto;html=1;exitX=1;exitY=0.5;exitDx=0;exitDy=0;entryX=0.5;entryY=0;entryDx=0;entryDy=0;" edge="1" parent="1" source="6l1XWt_ba81r55_pZD9l-5" target="6l1XWt_ba81r55_pZD9l-11">
          <mxGeometry relative="1" as="geometry" />
        </mxCell>
        <mxCell id="zM6WNufwg0qLV-KV7xnP-3" style="edgeStyle=orthogonalEdgeStyle;rounded=0;orthogonalLoop=1;jettySize=auto;html=1;entryX=0.5;entryY=1;entryDx=0;entryDy=0;shape=link;" edge="1" parent="1" source="zM6WNufwg0qLV-KV7xnP-2" target="6l1XWt_ba81r55_pZD9l-1">
          <mxGeometry relative="1" as="geometry" />
        </mxCell>
      </root>
    </mxGraphModel>
  </diagram>
</mxfile>
